<mxfile host="Electron" modified="2023-12-16T01:08:57.024Z" agent="Mozilla/5.0 (Windows NT 10.0; Win64; x64) AppleWebKit/537.36 (KHTML, like Gecko) draw.io/22.1.2 Chrome/114.0.5735.289 Electron/25.9.4 Safari/537.36" etag="4ILq5Zn9iIIT3puZADOR" version="22.1.2" type="device">
  <diagram name="Page-1" id="l3Z_9zewawtJI6N81AGv">
    <mxGraphModel dx="2023" dy="1138" grid="1" gridSize="10" guides="1" tooltips="1" connect="1" arrows="1" fold="1" page="1" pageScale="1" pageWidth="850" pageHeight="1100" math="0" shadow="0">
      <root>
        <mxCell id="0" />
        <mxCell id="1" parent="0" />
        <mxCell id="gYBuKVl4Us7iU-BwqGAX-1" value="Input Dataset" style="strokeWidth=2;html=1;shape=mxgraph.flowchart.start_1;whiteSpace=wrap;fontSize=13;fontStyle=1;fillColor=#d5e8d4;strokeColor=#82b366;" parent="1" vertex="1">
          <mxGeometry x="30" y="115.72" width="133.33" height="80" as="geometry" />
        </mxCell>
        <mxCell id="gYBuKVl4Us7iU-BwqGAX-2" value="&lt;b style=&quot;font-size: 30px;&quot;&gt;Workflow summary of the Geographic Genetic Correlation Project&amp;nbsp;&lt;br&gt;&lt;/b&gt;" style="text;html=1;align=center;verticalAlign=middle;resizable=0;points=[];autosize=1;strokeColor=none;fillColor=none;" parent="1" vertex="1">
          <mxGeometry x="-60" y="40" width="970" height="50" as="geometry" />
        </mxCell>
        <mxCell id="gYBuKVl4Us7iU-BwqGAX-3" value="Output Data&lt;br&gt;" style="shape=parallelogram;html=1;strokeWidth=2;perimeter=parallelogramPerimeter;whiteSpace=wrap;rounded=1;arcSize=12;size=0.23;fontStyle=1;fillColor=#ffe6cc;strokeColor=#d79b00;" parent="1" vertex="1">
          <mxGeometry x="360" y="112.86000000000001" width="160" height="68.57" as="geometry" />
        </mxCell>
        <mxCell id="gYBuKVl4Us7iU-BwqGAX-4" value="&lt;b&gt;&lt;font style=&quot;font-size: 15px;&quot;&gt;Function&lt;/font&gt;&lt;/b&gt;" style="rounded=1;whiteSpace=wrap;html=1;absoluteArcSize=1;arcSize=14;strokeWidth=2;fillColor=#dae8fc;strokeColor=#6c8ebf;" parent="1" vertex="1">
          <mxGeometry x="210" y="101.43" width="100" height="100" as="geometry" />
        </mxCell>
        <mxCell id="gYBuKVl4Us7iU-BwqGAX-5" value="Parameter" style="strokeWidth=2;html=1;shape=mxgraph.flowchart.document2;whiteSpace=wrap;size=0.25;fillColor=#e1d5e7;strokeColor=#9673a6;" parent="1" vertex="1">
          <mxGeometry x="600" y="121.43" width="100" height="60" as="geometry" />
        </mxCell>
        <mxCell id="gYBuKVl4Us7iU-BwqGAX-6" value="&lt;font style=&quot;font-size: 16px;&quot;&gt;&lt;b&gt;Functions&lt;/b&gt;&lt;br&gt;Full list of function used in the analysis&lt;br&gt;&lt;/font&gt;" style="rounded=0;whiteSpace=wrap;html=1;fillColor=#f8cecc;strokeColor=#b85450;" parent="1" vertex="1">
          <mxGeometry x="-135" y="330" width="440" height="110" as="geometry" />
        </mxCell>
        <mxCell id="gYBuKVl4Us7iU-BwqGAX-7" value="&lt;b&gt;createBuffers&amp;nbsp;&lt;/b&gt;" style="rounded=1;whiteSpace=wrap;html=1;absoluteArcSize=1;arcSize=14;strokeWidth=2;fillColor=#dae8fc;strokeColor=#6c8ebf;" parent="1" vertex="1">
          <mxGeometry x="10" y="480" width="100" height="100" as="geometry" />
        </mxCell>
        <UserObject label="geo.compareBuff" link="geo.compareBuff" id="gYBuKVl4Us7iU-BwqGAX-8">
          <mxCell style="rounded=1;whiteSpace=wrap;html=1;absoluteArcSize=1;arcSize=14;strokeWidth=2;fillColor=#dae8fc;strokeColor=#6c8ebf;" parent="1" vertex="1">
            <mxGeometry x="10" y="600" width="100" height="100" as="geometry" />
          </mxCell>
        </UserObject>
        <UserObject label="eco.intersectBuff" link="geo.compareBuff" id="gYBuKVl4Us7iU-BwqGAX-9">
          <mxCell style="rounded=1;whiteSpace=wrap;html=1;absoluteArcSize=1;arcSize=14;strokeWidth=2;fillColor=#dae8fc;strokeColor=#6c8ebf;" parent="1" vertex="1">
            <mxGeometry x="10" y="730" width="100" height="100" as="geometry" />
          </mxCell>
        </UserObject>
        <UserObject label="eco.compareBuff" link="eco.compareBuff" id="gYBuKVl4Us7iU-BwqGAX-10">
          <mxCell style="rounded=1;whiteSpace=wrap;html=1;absoluteArcSize=1;arcSize=14;strokeWidth=2;fillColor=#dae8fc;strokeColor=#6c8ebf;" parent="1" vertex="1">
            <mxGeometry x="10" y="860" width="100" height="100" as="geometry" />
          </mxCell>
        </UserObject>
        <UserObject label="gen.getAlleleCategories" link="gen.getAlleleCategories" id="gYBuKVl4Us7iU-BwqGAX-11">
          <mxCell style="rounded=1;whiteSpace=wrap;html=1;absoluteArcSize=1;arcSize=14;strokeWidth=2;fillColor=#dae8fc;strokeColor=#6c8ebf;" parent="1" vertex="1">
            <mxGeometry x="10" y="970" width="150" height="100" as="geometry" />
          </mxCell>
        </UserObject>
        <UserObject label="calculateCoverage" link="gen.getAlleleCategories" id="gYBuKVl4Us7iU-BwqGAX-12">
          <mxCell style="rounded=1;whiteSpace=wrap;html=1;absoluteArcSize=1;arcSize=14;strokeWidth=2;fillColor=#dae8fc;strokeColor=#6c8ebf;" parent="1" vertex="1">
            <mxGeometry x="10" y="1100" width="150" height="100" as="geometry" />
          </mxCell>
        </UserObject>
        <UserObject label="exSituResample" link="gen.getAlleleCategories" id="gYBuKVl4Us7iU-BwqGAX-13">
          <mxCell style="rounded=1;whiteSpace=wrap;html=1;absoluteArcSize=1;arcSize=14;strokeWidth=2;fillColor=#dae8fc;strokeColor=#6c8ebf;" parent="1" vertex="1">
            <mxGeometry x="10" y="1230" width="150" height="100" as="geometry" />
          </mxCell>
        </UserObject>
        <UserObject label="exSituResample.Par" link="exSituResample.Par" id="gYBuKVl4Us7iU-BwqGAX-14">
          <mxCell style="rounded=1;whiteSpace=wrap;html=1;absoluteArcSize=1;arcSize=14;strokeWidth=2;fillColor=#dae8fc;strokeColor=#6c8ebf;" parent="1" vertex="1">
            <mxGeometry x="10" y="1350" width="150" height="100" as="geometry" />
          </mxCell>
        </UserObject>
        <UserObject label="geo.gen.Resample" link="exSituResample.Par" id="gYBuKVl4Us7iU-BwqGAX-15">
          <mxCell style="rounded=1;whiteSpace=wrap;html=1;absoluteArcSize=1;arcSize=14;strokeWidth=2;fillColor=#dae8fc;strokeColor=#6c8ebf;" parent="1" vertex="1">
            <mxGeometry x="10" y="1480" width="150" height="100" as="geometry" />
          </mxCell>
        </UserObject>
        <UserObject label="geo.gen.Resample.Par" link="exSituResample.Par" id="gYBuKVl4Us7iU-BwqGAX-16">
          <mxCell style="rounded=1;whiteSpace=wrap;html=1;absoluteArcSize=1;arcSize=14;strokeWidth=2;fillColor=#dae8fc;strokeColor=#6c8ebf;" parent="1" vertex="1">
            <mxGeometry x="13.33" y="1610" width="150" height="100" as="geometry" />
          </mxCell>
        </UserObject>
        <UserObject label="gen.min95Mean" link="exSituResample.Par" id="gYBuKVl4Us7iU-BwqGAX-17">
          <mxCell style="rounded=1;whiteSpace=wrap;html=1;absoluteArcSize=1;arcSize=14;strokeWidth=2;fillColor=#dae8fc;strokeColor=#6c8ebf;" parent="1" vertex="1">
            <mxGeometry x="9.999999999999998" y="1740" width="150" height="100" as="geometry" />
          </mxCell>
        </UserObject>
        <UserObject label="gen.min95SD" link="exSituResample.Par" id="gYBuKVl4Us7iU-BwqGAX-18">
          <mxCell style="rounded=1;whiteSpace=wrap;html=1;absoluteArcSize=1;arcSize=14;strokeWidth=2;fillColor=#dae8fc;strokeColor=#6c8ebf;" parent="1" vertex="1">
            <mxGeometry x="10" y="1860" width="150" height="100" as="geometry" />
          </mxCell>
        </UserObject>
        <UserObject label="geo.min95Mean" link="exSituResample.Par" id="gYBuKVl4Us7iU-BwqGAX-22">
          <mxCell style="rounded=1;whiteSpace=wrap;html=1;absoluteArcSize=1;arcSize=14;strokeWidth=2;fillColor=#dae8fc;strokeColor=#6c8ebf;" parent="1" vertex="1">
            <mxGeometry x="10" y="1980" width="150" height="100" as="geometry" />
          </mxCell>
        </UserObject>
        <UserObject label="geo.min95SD" link="exSituResample.Par" id="gYBuKVl4Us7iU-BwqGAX-23">
          <mxCell style="rounded=1;whiteSpace=wrap;html=1;absoluteArcSize=1;arcSize=14;strokeWidth=2;fillColor=#dae8fc;strokeColor=#6c8ebf;" parent="1" vertex="1">
            <mxGeometry x="10" y="2100" width="150" height="100" as="geometry" />
          </mxCell>
        </UserObject>
        <UserObject label="eco.min95Mean" link="exSituResample.Par" id="gYBuKVl4Us7iU-BwqGAX-24">
          <mxCell style="rounded=1;whiteSpace=wrap;html=1;absoluteArcSize=1;arcSize=14;strokeWidth=2;fillColor=#dae8fc;strokeColor=#6c8ebf;" parent="1" vertex="1">
            <mxGeometry x="10" y="2240" width="150" height="100" as="geometry" />
          </mxCell>
        </UserObject>
        <UserObject label="eco.min95SD" link="exSituResample.Par" id="gYBuKVl4Us7iU-BwqGAX-25">
          <mxCell style="rounded=1;whiteSpace=wrap;html=1;absoluteArcSize=1;arcSize=14;strokeWidth=2;fillColor=#dae8fc;strokeColor=#6c8ebf;" parent="1" vertex="1">
            <mxGeometry x="10" y="2380" width="150" height="100" as="geometry" />
          </mxCell>
        </UserObject>
        <UserObject label="meanArrayValues" link="exSituResample.Par" id="gYBuKVl4Us7iU-BwqGAX-26">
          <mxCell style="rounded=1;whiteSpace=wrap;html=1;absoluteArcSize=1;arcSize=14;strokeWidth=2;fillColor=#dae8fc;strokeColor=#6c8ebf;" parent="1" vertex="1">
            <mxGeometry x="10" y="2510" width="150" height="100" as="geometry" />
          </mxCell>
        </UserObject>
        <UserObject label="resample.array2dataframe" link="exSituResample.Par" id="gYBuKVl4Us7iU-BwqGAX-27">
          <mxCell style="rounded=1;whiteSpace=wrap;html=1;absoluteArcSize=1;arcSize=14;strokeWidth=2;fillColor=#dae8fc;strokeColor=#6c8ebf;" parent="1" vertex="1">
            <mxGeometry x="10" y="2650" width="180" height="100" as="geometry" />
          </mxCell>
        </UserObject>
        <UserObject label="getWildFreqs" link="exSituResample.Par" id="gYBuKVl4Us7iU-BwqGAX-28">
          <mxCell style="rounded=1;whiteSpace=wrap;html=1;absoluteArcSize=1;arcSize=14;strokeWidth=2;fillColor=#dae8fc;strokeColor=#6c8ebf;" parent="1" vertex="1">
            <mxGeometry y="2790" width="180" height="100" as="geometry" />
          </mxCell>
        </UserObject>
        <UserObject label="getTotalFreqs" link="exSituResample.Par" id="gYBuKVl4Us7iU-BwqGAX-29">
          <mxCell style="rounded=1;whiteSpace=wrap;html=1;absoluteArcSize=1;arcSize=14;strokeWidth=2;fillColor=#dae8fc;strokeColor=#6c8ebf;" parent="1" vertex="1">
            <mxGeometry y="2930" width="180" height="100" as="geometry" />
          </mxCell>
        </UserObject>
        <UserObject label="getWildAlleleFreqProportions" link="exSituResample.Par" id="gYBuKVl4Us7iU-BwqGAX-30">
          <mxCell style="rounded=1;whiteSpace=wrap;html=1;absoluteArcSize=1;arcSize=14;strokeWidth=2;fillColor=#dae8fc;strokeColor=#6c8ebf;" parent="1" vertex="1">
            <mxGeometry y="3080" width="180" height="100" as="geometry" />
          </mxCell>
        </UserObject>
        <UserObject label="getTotalAlleleFreqProportions" link="exSituResample.Par" id="gYBuKVl4Us7iU-BwqGAX-31">
          <mxCell style="rounded=1;whiteSpace=wrap;html=1;absoluteArcSize=1;arcSize=14;strokeWidth=2;fillColor=#dae8fc;strokeColor=#6c8ebf;" parent="1" vertex="1">
            <mxGeometry y="3220" width="180" height="100" as="geometry" />
          </mxCell>
        </UserObject>
        <mxCell id="gYBuKVl4Us7iU-BwqGAX-33" value="&lt;font style=&quot;font-size: 16px;&quot;&gt;&lt;b&gt;Parallel workflow&lt;br&gt;&lt;/b&gt;The output and general relationship between functions does not change between the parallel and sequential workflow. The parallel is show here.&amp;nbsp;&lt;br&gt;&lt;/font&gt;" style="rounded=0;whiteSpace=wrap;html=1;fillColor=#f8cecc;strokeColor=#b85450;" parent="1" vertex="1">
          <mxGeometry x="520" y="460" width="440" height="110" as="geometry" />
        </mxCell>
        <mxCell id="gYBuKVl4Us7iU-BwqGAX-37" style="edgeStyle=orthogonalEdgeStyle;rounded=0;orthogonalLoop=1;jettySize=auto;html=1;exitX=0.5;exitY=1;exitDx=0;exitDy=0;entryX=0.5;entryY=0;entryDx=0;entryDy=0;" parent="1" source="gYBuKVl4Us7iU-BwqGAX-34" target="gYBuKVl4Us7iU-BwqGAX-36" edge="1">
          <mxGeometry relative="1" as="geometry" />
        </mxCell>
        <mxCell id="F41DUoRpzHWBWBPpp3j8-3" value="" style="edgeStyle=orthogonalEdgeStyle;rounded=0;orthogonalLoop=1;jettySize=auto;html=1;" edge="1" parent="1" source="gYBuKVl4Us7iU-BwqGAX-34" target="F41DUoRpzHWBWBPpp3j8-2">
          <mxGeometry relative="1" as="geometry" />
        </mxCell>
        <UserObject label="geo.gen.Resample.Par" link="exSituResample.Par" id="gYBuKVl4Us7iU-BwqGAX-34">
          <mxCell style="rounded=1;whiteSpace=wrap;html=1;absoluteArcSize=1;arcSize=14;strokeWidth=2;fillColor=#dae8fc;strokeColor=#6c8ebf;" parent="1" vertex="1">
            <mxGeometry x="550" y="680" width="150" height="100" as="geometry" />
          </mxCell>
        </UserObject>
        <mxCell id="gYBuKVl4Us7iU-BwqGAX-35" value="&lt;font style=&quot;font-size: 17px;&quot;&gt;&lt;b&gt;Top Level : &lt;/b&gt;Set input parameters for all child functions&amp;nbsp;&lt;/font&gt;" style="rounded=0;whiteSpace=wrap;html=1;fillColor=#fff2cc;strokeColor=#d6b656;" parent="1" vertex="1">
          <mxGeometry x="520" y="600" width="320" height="60" as="geometry" />
        </mxCell>
        <mxCell id="gYBuKVl4Us7iU-BwqGAX-39" style="edgeStyle=orthogonalEdgeStyle;rounded=0;orthogonalLoop=1;jettySize=auto;html=1;exitX=0.5;exitY=1;exitDx=0;exitDy=0;entryX=0.5;entryY=0;entryDx=0;entryDy=0;" parent="1" source="gYBuKVl4Us7iU-BwqGAX-36" target="gYBuKVl4Us7iU-BwqGAX-38" edge="1">
          <mxGeometry relative="1" as="geometry" />
        </mxCell>
        <UserObject label="exSituResample.Par" link="exSituResample.Par" id="gYBuKVl4Us7iU-BwqGAX-36">
          <mxCell style="rounded=1;whiteSpace=wrap;html=1;absoluteArcSize=1;arcSize=14;strokeWidth=2;fillColor=#dae8fc;strokeColor=#6c8ebf;" parent="1" vertex="1">
            <mxGeometry x="550" y="870" width="150" height="100" as="geometry" />
          </mxCell>
        </UserObject>
        <mxCell id="gYBuKVl4Us7iU-BwqGAX-41" style="edgeStyle=orthogonalEdgeStyle;rounded=0;orthogonalLoop=1;jettySize=auto;html=1;exitX=0.5;exitY=1;exitDx=0;exitDy=0;entryX=0.5;entryY=0;entryDx=0;entryDy=0;" parent="1" source="gYBuKVl4Us7iU-BwqGAX-38" target="gYBuKVl4Us7iU-BwqGAX-40" edge="1">
          <mxGeometry relative="1" as="geometry" />
        </mxCell>
        <mxCell id="gYBuKVl4Us7iU-BwqGAX-43" style="edgeStyle=orthogonalEdgeStyle;rounded=0;orthogonalLoop=1;jettySize=auto;html=1;exitX=0.5;exitY=1;exitDx=0;exitDy=0;entryX=0.5;entryY=0;entryDx=0;entryDy=0;" parent="1" source="gYBuKVl4Us7iU-BwqGAX-38" target="gYBuKVl4Us7iU-BwqGAX-42" edge="1">
          <mxGeometry relative="1" as="geometry" />
        </mxCell>
        <mxCell id="gYBuKVl4Us7iU-BwqGAX-47" style="edgeStyle=orthogonalEdgeStyle;rounded=0;orthogonalLoop=1;jettySize=auto;html=1;exitX=0.5;exitY=1;exitDx=0;exitDy=0;" parent="1" source="gYBuKVl4Us7iU-BwqGAX-38" target="gYBuKVl4Us7iU-BwqGAX-46" edge="1">
          <mxGeometry relative="1" as="geometry" />
        </mxCell>
        <mxCell id="F41DUoRpzHWBWBPpp3j8-8" style="edgeStyle=orthogonalEdgeStyle;rounded=0;orthogonalLoop=1;jettySize=auto;html=1;exitX=0.5;exitY=1;exitDx=0;exitDy=0;entryX=0.5;entryY=0;entryDx=0;entryDy=0;" edge="1" parent="1" source="gYBuKVl4Us7iU-BwqGAX-38" target="F41DUoRpzHWBWBPpp3j8-7">
          <mxGeometry relative="1" as="geometry" />
        </mxCell>
        <UserObject label="calculateCoverage" link="gen.getAlleleCategories" id="gYBuKVl4Us7iU-BwqGAX-38">
          <mxCell style="rounded=1;whiteSpace=wrap;html=1;absoluteArcSize=1;arcSize=14;strokeWidth=2;fillColor=#dae8fc;strokeColor=#6c8ebf;" parent="1" vertex="1">
            <mxGeometry x="550" y="1050" width="150" height="100" as="geometry" />
          </mxCell>
        </UserObject>
        <UserObject label="gen.getAlleleCategories" link="gen.getAlleleCategories" id="gYBuKVl4Us7iU-BwqGAX-40">
          <mxCell style="rounded=1;whiteSpace=wrap;html=1;absoluteArcSize=1;arcSize=14;strokeWidth=2;fillColor=#dae8fc;strokeColor=#6c8ebf;" parent="1" vertex="1">
            <mxGeometry x="550" y="1220" width="150" height="100" as="geometry" />
          </mxCell>
        </UserObject>
        <mxCell id="gYBuKVl4Us7iU-BwqGAX-50" style="edgeStyle=orthogonalEdgeStyle;rounded=0;orthogonalLoop=1;jettySize=auto;html=1;exitX=0.5;exitY=1;exitDx=0;exitDy=0;entryX=0.5;entryY=0;entryDx=0;entryDy=0;" parent="1" source="gYBuKVl4Us7iU-BwqGAX-42" target="gYBuKVl4Us7iU-BwqGAX-49" edge="1">
          <mxGeometry relative="1" as="geometry" />
        </mxCell>
        <UserObject label="eco.compareBuff" link="eco.compareBuff" id="gYBuKVl4Us7iU-BwqGAX-42">
          <mxCell style="rounded=1;whiteSpace=wrap;html=1;absoluteArcSize=1;arcSize=14;strokeWidth=2;fillColor=#dae8fc;strokeColor=#6c8ebf;" parent="1" vertex="1">
            <mxGeometry x="1070" y="1220" width="100" height="100" as="geometry" />
          </mxCell>
        </UserObject>
        <mxCell id="gYBuKVl4Us7iU-BwqGAX-44" value="&lt;b&gt;createBuffers&amp;nbsp;&lt;/b&gt;" style="rounded=1;whiteSpace=wrap;html=1;absoluteArcSize=1;arcSize=14;strokeWidth=2;fillColor=#dae8fc;strokeColor=#6c8ebf;" parent="1" vertex="1">
          <mxGeometry x="750" y="1370" width="100" height="100" as="geometry" />
        </mxCell>
        <mxCell id="gYBuKVl4Us7iU-BwqGAX-48" style="edgeStyle=orthogonalEdgeStyle;rounded=0;orthogonalLoop=1;jettySize=auto;html=1;exitX=0.5;exitY=1;exitDx=0;exitDy=0;entryX=0.5;entryY=0;entryDx=0;entryDy=0;" parent="1" source="gYBuKVl4Us7iU-BwqGAX-46" target="gYBuKVl4Us7iU-BwqGAX-44" edge="1">
          <mxGeometry relative="1" as="geometry" />
        </mxCell>
        <UserObject label="geo.compareBuff" link="geo.compareBuff" id="gYBuKVl4Us7iU-BwqGAX-46">
          <mxCell style="rounded=1;whiteSpace=wrap;html=1;absoluteArcSize=1;arcSize=14;strokeWidth=2;fillColor=#dae8fc;strokeColor=#6c8ebf;" parent="1" vertex="1">
            <mxGeometry x="750" y="1220" width="100" height="100" as="geometry" />
          </mxCell>
        </UserObject>
        <mxCell id="gYBuKVl4Us7iU-BwqGAX-52" style="edgeStyle=orthogonalEdgeStyle;rounded=0;orthogonalLoop=1;jettySize=auto;html=1;exitX=0.5;exitY=1;exitDx=0;exitDy=0;entryX=0.5;entryY=0;entryDx=0;entryDy=0;" parent="1" source="gYBuKVl4Us7iU-BwqGAX-49" target="gYBuKVl4Us7iU-BwqGAX-51" edge="1">
          <mxGeometry relative="1" as="geometry" />
        </mxCell>
        <UserObject label="eco.intersectBuff" link="geo.compareBuff" id="gYBuKVl4Us7iU-BwqGAX-49">
          <mxCell style="rounded=1;whiteSpace=wrap;html=1;absoluteArcSize=1;arcSize=14;strokeWidth=2;fillColor=#dae8fc;strokeColor=#6c8ebf;" parent="1" vertex="1">
            <mxGeometry x="1070" y="1370" width="100" height="100" as="geometry" />
          </mxCell>
        </UserObject>
        <mxCell id="gYBuKVl4Us7iU-BwqGAX-51" value="&lt;b&gt;createBuffers&amp;nbsp;&lt;/b&gt;" style="rounded=1;whiteSpace=wrap;html=1;absoluteArcSize=1;arcSize=14;strokeWidth=2;fillColor=#dae8fc;strokeColor=#6c8ebf;" parent="1" vertex="1">
          <mxGeometry x="1070" y="1510" width="100" height="100" as="geometry" />
        </mxCell>
        <mxCell id="F41DUoRpzHWBWBPpp3j8-2" value="All parameters are defined in this call" style="shape=document;whiteSpace=wrap;html=1;boundedLbl=1;rounded=1;arcSize=14;strokeWidth=2;" vertex="1" parent="1">
          <mxGeometry x="795" y="690" width="285" height="80" as="geometry" />
        </mxCell>
        <mxCell id="F41DUoRpzHWBWBPpp3j8-5" value="&lt;b&gt;createBuffers&amp;nbsp;&lt;/b&gt;" style="rounded=1;whiteSpace=wrap;html=1;absoluteArcSize=1;arcSize=14;strokeWidth=2;fillColor=#dae8fc;strokeColor=#6c8ebf;" vertex="1" parent="1">
          <mxGeometry x="895" y="1370" width="100" height="100" as="geometry" />
        </mxCell>
        <mxCell id="F41DUoRpzHWBWBPpp3j8-6" style="edgeStyle=orthogonalEdgeStyle;rounded=0;orthogonalLoop=1;jettySize=auto;html=1;exitX=0.5;exitY=1;exitDx=0;exitDy=0;entryX=0.5;entryY=0;entryDx=0;entryDy=0;" edge="1" parent="1" source="F41DUoRpzHWBWBPpp3j8-7" target="F41DUoRpzHWBWBPpp3j8-5">
          <mxGeometry relative="1" as="geometry" />
        </mxCell>
        <UserObject label="geo.compareBuffSDM" link="geo.compareBuff" id="F41DUoRpzHWBWBPpp3j8-7">
          <mxCell style="rounded=1;whiteSpace=wrap;html=1;absoluteArcSize=1;arcSize=14;strokeWidth=2;fillColor=#dae8fc;strokeColor=#6c8ebf;" vertex="1" parent="1">
            <mxGeometry x="880" y="1220" width="130" height="100" as="geometry" />
          </mxCell>
        </UserObject>
      </root>
    </mxGraphModel>
  </diagram>
</mxfile>
